<?xml version="1.0" encoding="utf-8"?>
<!-- Generator: Adobe Illustrator 22.0.1, SVG Export Plug-In . SVG Version: 6.00 Build 0)  -->
<svg version="1.1" id="Layer_1" xmlns="http://www.w3.org/2000/svg" xmlns:xlink="http://www.w3.org/1999/xlink" x="0px" y="0px"
	 viewBox="0 0 340.1 163.6" enable-background="new 0 0 340.1 163.6" xml:space="preserve">
<g>
	<path fill="#F4E808" d="M167.8,4.3c-0.4-0.9-1-1.7-1.7-2.3c-1.2-1.1-2.9-1.7-4.6-1.7H141h-1.7h-20.5c-1.5,0-2.9,0.5-4.1,1.3
		c-0.9,0.7-1.7,1.6-2.2,2.7l-9.2,19.2h36h1.7h36L167.8,4.3z"/>
	<path fill="#F7C906" d="M8.6,149.3h324.3v-25.4c0-5.4-1.6-10.5-4.5-14.8c-3.9-5.9-10.1-10.2-17.5-11.5l-54.5-9.8l-36.8-52.6
		c-3.4-4.9-7.7-9.1-12.4-12.5C198.5,16.5,188,13,177,13H89.2c-6.8,0-13.2,1.9-18.7,5.3c-7,4.4-12.5,11.1-15.1,19.4l-14,43.4
		l-19.5,7.8c-4.8,1.9-8.9,5-12.1,8.7c-6,7.1-8.7,16.9-6.6,26.5L8.6,149.3z"/>
	<path fill="#222251" d="M141.2,77.7V39.4c0-3.2,1.5-6.1,3.9-7.9c1.7-1.3,3.8-2.1,6.2-2.1h35.6c4.4,0,8.6,1.3,12.1,3.6
		c2.5,1.6,4.7,3.7,6.4,6.2l22.5,32.9c2,2.9,2.2,6.2,1.2,9c-1.4,3.7-4.9,6.6-9.4,6.6h-68.4C145.7,87.7,141.2,83.3,141.2,77.7z
		 M129.2,39.4c0-2.5-0.9-4.8-2.5-6.6c-1.8-2.1-4.5-3.4-7.6-3.4H91.4c-5.3,0-10.2,1.8-14.1,5c-3.4,2.7-5.9,6.4-7.3,10.7l-9.3,29.6
		c-1.4,4.3,0.4,8.7,3.7,11.2c1.6,1.2,3.6,1.9,5.8,1.9h49c5.5,0,10-4.5,10-10L129.2,39.4L129.2,39.4z"/>
	<path fill="#F48908" d="M336.9,163.5H4.5c-0.8,0-1.5-0.4-1.9-1c-0.3-0.4-0.4-0.8-0.4-1.4v-14.7c0-0.5,0.2-1,0.4-1.4
		c0.4-0.6,1.1-1,1.9-1h332.4c1,0,1.8,0.6,2.2,1.4c0.1,0.3,0.2,0.6,0.2,0.9V161c0,0.6-0.2,1.1-0.6,1.6
		C338.2,163.2,337.6,163.5,336.9,163.5z"/>
	<rect x="2.1" y="117.3" fill="#EA2A4A" width="9.8" height="19.8"/>
	<ellipse fill="#F48908" cx="321.9" cy="126.6" rx="6.2" ry="11.6"/>
	<path fill="#FFF5AE" d="M319.9,115.6c-2.4,1.6-4.2,5.9-4.2,11c0,5.1,1.7,9.4,4.2,11c2.4-1.6,4.2-5.9,4.2-11
		C324.1,121.5,322.4,117.1,319.9,115.6z"/>
	<path opacity="0.1" fill="#FFFFFF" enable-background="new    " d="M104.8,87.7H88.5L66.4,56.5l3.5-11.4c0.5-1.5,1.1-2.9,1.8-4.2
		L104.8,87.7z M78.2,87.7h3.5L64.3,63.1l-1.1,3.4L78.2,87.7z M226.9,84.7l-39-55.2c-0.3,0-0.7,0-1,0h-15.4l41.2,58.3h6.9
		C222.6,87.7,225.1,86.5,226.9,84.7z M129.2,50.4v-11c0-2.5-0.9-4.8-2.5-6.6c-1.8-2.1-4.5-3.4-7.6-3.4h-4.8L129.2,50.4z M164.7,29.4
		h-3.5l41.2,58.3h3.5L164.7,29.4z M141.2,44.4v23.1l14.3,20.3h16.3L141.2,44.4z M141.2,77v0.7c0,4.6,3.1,8.4,7.3,9.6L141.2,77z
		 M129.2,64.9V60l-21.6-30.5h-3.5L129.2,64.9z"/>
	<rect x="147.4" y="93.6" fill="#F48908" width="24.5" height="6.4"/>
	<rect x="63.2" y="93.6" fill="#F48908" width="24.5" height="6.4"/>
	<path fill="#222251" d="M88,115h-9.5v9.5H88V115z M97.5,124.4H88v9.5h9.5V124.4z M107,115h-9.5v9.5h9.5V115z M116.5,124.4H107v9.5
		h9.5V124.4z M125.9,115h-9.5v9.5h9.5V115z M135.4,124.4h-9.5v9.5h9.5V124.4z M144.9,115h-9.5v9.5h9.5V115z M154.3,124.4h-9.5v9.5
		h9.5V124.4z M163.8,115h-9.5v9.5h9.5V115z M173.3,124.4h-9.5v9.5h9.5V124.4z M182.8,115h-9.5v9.5h9.5V115z M192.2,124.4h-9.5v9.5
		h9.5V124.4z M201.7,115h-9.5v9.5h9.5V115z M211.2,124.4h-9.5v9.5h9.5V124.4z M220.6,115h-9.5v9.5h9.5V115z"/>
</g>
<text transform="matrix(1 0 0 1 126.0002 10.5224)" font-family="'ArialMT'" font-size="12px">T</text>
<text transform="matrix(1 0 0 1 132.4001 10.5224)" font-family="'ArialMT'" font-size="12px">AXI</text>
</svg>
