<?xml version="1.0" encoding="utf-8"?>
<!-- Generator: Adobe Illustrator 22.0.1, SVG Export Plug-In . SVG Version: 6.00 Build 0)  -->
<svg version="1.1" id="Layer_1" xmlns="http://www.w3.org/2000/svg" xmlns:xlink="http://www.w3.org/1999/xlink" x="0px" y="0px"
	 viewBox="0 0 62 62" enable-background="new 0 0 62 62" xml:space="preserve">
<g>
	<path fill="#222251" d="M61.3,31c0,16.8-13.6,30.3-30.3,30.3C14.2,61.3,0.7,47.8,0.7,31C0.7,14.2,14.2,0.7,31,0.7
		C47.8,0.7,61.3,14.2,61.3,31z"/>
	<path fill="#EFECCA" d="M49.8,31c0,10.4-8.4,18.8-18.8,18.8c-10.4,0-18.8-8.4-18.8-18.8c0-10.4,8.4-18.8,18.8-18.8
		C41.4,12.2,49.8,20.6,49.8,31z"/>
	<g>
		<g>
			<path fill="#F7C906" d="M33.3,13.8c0,0-1.5-0.1-1.5,1.4v5.6c0,0-0.1,1.2,0.8,1.4c0,0,2.5,0.6,3.7,1.3c0,0,0.7,0.6,1.6-0.5l3.9-4
				c0,0,0.9-0.9,0.5-1.5C42.3,17.5,39.5,14.6,33.3,13.8z"/>
			<path fill="#F7C906" d="M28.6,13.8c0,0,1.5-0.1,1.5,1.4v5.6c0,0,0.1,1.2-0.8,1.4c0,0-2.5,0.6-3.7,1.3c0,0-0.7,0.6-1.6-0.5l-3.9-4
				c0,0-0.9-0.9-0.5-1.5C19.6,17.5,22.5,14.6,28.6,13.8z"/>
			<path fill="#F7C906" d="M48.5,28.3c0,0,0.2,1.5-1.3,1.6l-5.6,0.3c0,0-1.2,0.1-1.4-0.7c0,0-0.7-2.5-1.5-3.6c0,0-0.6-0.6,0.4-1.6
				l3.7-4.2c0,0,0.9-1,1.5-0.6C44.3,19.5,47.4,22.1,48.5,28.3z"/>
			<path fill="#F7C906" d="M13.5,28.3c0,0-0.2,1.5,1.3,1.6l5.6,0.3c0,0,1.2,0.1,1.4-0.7c0,0,0.7-2.5,1.5-3.6c0,0,0.6-0.6-0.4-1.6
				l-3.7-4.2c0,0-0.9-1-1.5-0.6C17.7,19.5,14.6,22.1,13.5,28.3z"/>
		</g>
		<g>
			<path fill="#F7C906" d="M33.3,48.2c0,0-1.5,0.1-1.5-1.4v-5.6c0,0-0.1-1.2,0.8-1.4c0,0,2.5-0.6,3.7-1.3c0,0,0.7-0.6,1.6,0.5l3.9,4
				c0,0,0.9,0.9,0.5,1.5C42.3,44.5,39.5,47.4,33.3,48.2z"/>
			<path fill="#F7C906" d="M28.6,48.2c0,0,1.5,0.1,1.5-1.4v-5.6c0,0,0.1-1.2-0.8-1.4c0,0-2.5-0.6-3.7-1.3c0,0-0.7-0.6-1.6,0.5
				l-3.9,4c0,0-0.9,0.9-0.5,1.5C19.6,44.5,22.5,47.4,28.6,48.2z"/>
			<path fill="#F7C906" d="M48.5,33.7c0,0,0.2-1.5-1.3-1.6l-5.6-0.3c0,0-1.2-0.1-1.4,0.7c0,0-0.7,2.5-1.5,3.6c0,0-0.6,0.6,0.4,1.6
				l3.7,4.2c0,0,0.9,1,1.5,0.6C44.3,42.5,47.4,39.9,48.5,33.7z"/>
			<path fill="#F7C906" d="M13.5,33.7c0,0-0.2-1.5,1.3-1.6l5.6-0.3c0,0,1.2-0.1,1.4,0.7c0,0,0.7,2.5,1.5,3.6c0,0,0.6,0.6-0.4,1.6
				l-3.7,4.2c0,0-0.9,1-1.5,0.6C17.7,42.5,14.6,39.9,13.5,33.7z"/>
		</g>
	</g>
	<path fill="#A8A7A1" d="M25.6,28.6c0,0.4-0.3,0.8-0.8,0.8c-0.4,0-0.8-0.3-0.8-0.8c0-0.4,0.3-0.8,0.8-0.8
		C25.3,27.9,25.6,28.2,25.6,28.6z"/>
	<path fill="#A8A7A1" d="M28.8,25c0,0.4-0.3,0.8-0.8,0.8c-0.4,0-0.8-0.3-0.8-0.8c0-0.4,0.3-0.8,0.8-0.8C28.5,24.2,28.8,24.6,28.8,25
		z"/>
	<path fill="#A8A7A1" d="M34.6,24.8c0,0.4-0.3,0.8-0.8,0.8c-0.4,0-0.8-0.3-0.8-0.8c0-0.4,0.3-0.8,0.8-0.8
		C34.3,24,34.6,24.4,34.6,24.8z"/>
	<path fill="#A8A7A1" d="M37.9,28.6c0,0.4-0.3,0.8-0.8,0.8c-0.4,0-0.8-0.3-0.8-0.8c0-0.4,0.3-0.8,0.8-0.8
		C37.5,27.9,37.9,28.2,37.9,28.6z"/>
	<path fill="#A8A7A1" d="M25.6,33.5c0-0.4-0.3-0.8-0.8-0.8c-0.4,0-0.8,0.3-0.8,0.8c0,0.4,0.3,0.8,0.8,0.8
		C25.3,34.3,25.6,33.9,25.6,33.5z"/>
	<path fill="#A8A7A1" d="M28.8,37.2c0-0.4-0.3-0.8-0.8-0.8c-0.4,0-0.8,0.3-0.8,0.8c0,0.4,0.3,0.8,0.8,0.8
		C28.5,37.9,28.8,37.6,28.8,37.2z"/>
	<path fill="#A8A7A1" d="M34.6,37.3c0-0.4-0.3-0.8-0.8-0.8c-0.4,0-0.8,0.3-0.8,0.8c0,0.4,0.3,0.8,0.8,0.8
		C34.3,38.1,34.6,37.7,34.6,37.3z"/>
	<path fill="#A8A7A1" d="M37.9,33.5c0-0.4-0.3-0.8-0.8-0.8c-0.4,0-0.8,0.3-0.8,0.8c0,0.4,0.3,0.8,0.8,0.8
		C37.5,34.3,37.9,33.9,37.9,33.5z"/>
</g>
</svg>
