<?xml version="1.0" encoding="utf-8"?>
<!-- Generator: Adobe Illustrator 22.0.1, SVG Export Plug-In . SVG Version: 6.00 Build 0)  -->
<svg version="1.1" id="Layer_1" xmlns="http://www.w3.org/2000/svg" xmlns:xlink="http://www.w3.org/1999/xlink" x="0px" y="0px"
	 viewBox="0 0 106.8 236.1" enable-background="new 0 0 106.8 236.1" xml:space="preserve">
<g>
	<path fill="#222251" d="M28.2,110.8c0,0-10.3,57.2-10,114.3h10c0,0,9.4-67.7,19.3-93.8c0,0,3.6,60.5,7.5,93.8h11.1
		c0,0,1.6-47.9,1.4-116.8L53,95.5L28.2,110.8z"/>
	<g>
		<path fill="#F48908" d="M93.8,167.8H73.4c-3.8,0-6.9-3.1-6.9-6.9v-31.5c0-3.8,3.1-6.9,6.9-6.9h20.4c3.8,0,6.9,3.1,6.9,6.9v31.5
			C100.8,164.7,97.7,167.8,93.8,167.8z M73.4,125.7c-2.1,0-3.8,1.7-3.8,3.8v31.5c0,2.1,1.7,3.8,3.8,3.8h20.4c2.1,0,3.8-1.7,3.8-3.8
			v-31.5c0-2.1-1.7-3.8-3.8-3.8H73.4z"/>
	</g>
	<path fill="#1E4B9B" d="M104.2,181H63.1c-0.5,0-1-0.1-1.4-0.4c-0.8-0.5-1.3-1.4-1.3-2.4v-32.4c0-0.6,0.2-1.2,0.5-1.6
		c0.5-0.7,1.3-1.1,2.2-1.1h41.1c0.8,0,1.4,0.3,1.9,0.8c0.5,0.5,0.8,1.2,0.8,1.9v32.4c0,0.8-0.3,1.4-0.8,1.9S105,181,104.2,181z"/>
	<path fill="#222251" d="M4.8,32.6L4.8,32.6c-0.2,0-0.4,0-0.6,0c-0.7-0.1-1.2-0.7-1.3-1.4L0.2,15.4c-0.1-0.6,0.1-1.1,0.5-1.5
		c0.3-0.3,0.6-0.5,1-0.5l8.4-1.1c0.5-0.1,0.9,0.1,1.3,0.3c0.4,0.3,0.6,0.7,0.7,1.1L14.8,31l-4,3.5L4.8,32.6z"/>
	<polygon fill="#3088D8" points="1.6,15.7 4.3,30.5 13.4,29.1 10.7,14.2 	"/>
	<path fill="#FFBE92" d="M11.7,37.7l1.5-1.3c0,0,3.1-5,2.4-6.8c-0.7-1.8-4.7-3.3-5.5-2.3c-0.8,1,0.1,1.8,0.9,2.4
		c0.8,0.6,1.8,1.6,1.8,1.6l-8,1.3l1.3,3.8L11.7,37.7z"/>
	<path fill="#3088D8" d="M38.3,42.5c0,0-5.3,2.1-7.7,5c-2.4,2.8-17.3,16.3-18,13.4c-0.8-2.8,0.6-24.5,0.6-24.5h-7
		c0,0-6.3,26.7-0.7,34.4c5.6,7.7,25.9-7.9,25.9-7.9l-3.2,47.9c0,0,24.7,6,39.4-2.4c0,0-2.6-38.5-3.4-45.7c0,0,10.3,11.7,13,29.7
		c1.8,12.5,1.1,26.7,1.1,26.7h7.7c0,0,5.9-25.4-4.1-48.5c-10.7-24.6-16-26.7-24.8-31l-8.5,8.2L38.3,42.5z"/>
	<path fill="#1E4B9B" d="M62.3,104.8c-5.6,2.1-11.6,2.9-17.6,2.7c-3.3-0.1-6.7-0.5-9.9-1.2c-2.1-0.4-4.1-1.2-6.2-1.8l-0.4,6.4
		c0,0,24.7,6,39.4-2.4c0,0-0.2-2.3-0.4-5.8C65.6,103.4,64,104.1,62.3,104.8z"/>
	<path fill="#1E4B9B" d="M12.9,41.8c0.2-3.2,0.3-5.5,0.3-5.5h-7c0,0-0.5,1.9-1,4.9C7.6,40.6,10.3,40.9,12.9,41.8z"/>
	<path fill="#1E4B9B" d="M85.3,112.1c-2.2-0.4-4.6-0.6-6.8-0.1c0,4.2-0.1,7.1-0.1,7.1h7.7c0,0,0.6-2.5,1.1-6.5
		C86.5,112.4,85.9,112.2,85.3,112.1z"/>
	<path fill="#222251" d="M58.2,17.7c0-5.7-3.1-7.1-3.1-7.1C54.6,7,48.8,4.8,43.7,2.9c-5-1.9-13.2-1.7-14.3,2.8
		c-0.4,1.8,0,3.4,0.6,4.8c-1.3,1.8-1.8,4.2-1.7,6.4c0.2,3.7,2.7,7.2,6.6,7.5c1,0.1,1.8-1.1,1.5-2c-0.2-0.5-0.4-1.1-0.6-1.6
		c0-0.3-0.1-0.6-0.2-0.8c-0.1-0.1-0.1-0.2-0.2-0.3c-0.3-0.9-0.6-1.7-0.8-2.6c3,4.1,8.9,11.3,15.3,13.9C59,34.6,58.2,23.4,58.2,17.7z
		"/>
	<path fill="#FFBE92" d="M50.6,14.2c0,0-0.6,5.3,1,9.2c0,0,2-1.4,3.1,1.4c1.2,2.7-0.6,6.1-2.9,4.9L51.6,32l-1.1,1.6l3.1,5.9
		c0,0-3.4,9-10.1,10.5c0,0-3.1-4.5-3.3-8.6c0,0,2.7-2.1,2.3-4.3c0,0-6.8,1.5-9.2-1.8c-3.5-4.7-1.4-17.6-0.8-21.2
		C32.6,14.2,47.1,16.3,50.6,14.2z"/>
	<path fill="#1E4B9B" d="M41,40.8c0,0,0.3,4.8,3.9,5.6c3.7,0.8,8.2-8,8.2-8s2.3-0.8,4,1.2c0,0-2.2,10.8-11,11.9
		c-6.2,0.8-9.3-5.1-8.4-8.8C37.7,42.7,39.3,40.2,41,40.8z"/>
	<path fill="#1E4B9B" d="M18.2,225.1L2.1,234c-0.3,0.2-0.4,0.5-0.4,0.7c0.1,0.3,0.3,0.6,0.7,0.6h24.9c0.2,0,0.4-0.1,0.5-0.2
		s0.2-0.3,0.2-0.5l0.2-9.5H18.2z"/>
	<path fill="#1E4B9B" d="M55.1,225.1l-6.7,9.1c-0.2,0.2-0.2,0.5-0.1,0.7c0.1,0.2,0.3,0.4,0.6,0.4h16.4c0.2,0,0.4-0.1,0.6-0.3
		c0.1-0.1,0.1-0.2,0.1-0.4l0.2-9.5H55.1z"/>
	<path fill="#FFBE92" d="M78.4,119.1c0,0-2.1,6.2-1.2,8.9c0.9,2.7,7.4,1.5,8.8,0.6c1.4-0.9,1.8-3.1,1.8-3.1s-1.8,0.1-2-1.8
		c-0.3-1.9,0.3-4.6,0.3-4.6S82,117.3,78.4,119.1z"/>
	<path fill="#3088D8" d="M104.2,143.2H63.1c-0.9,0-1.7,0.4-2.2,1.1c-0.3,0.5-0.5,1-0.5,1.6v9h46.6v-9c0-0.8-0.3-1.4-0.8-1.9
		C105.6,143.5,105,143.2,104.2,143.2z"/>
</g>
</svg>
