<?xml version="1.0" encoding="utf-8"?>
<!-- Generator: Adobe Illustrator 22.0.1, SVG Export Plug-In . SVG Version: 6.00 Build 0)  -->
<svg version="1.1" id="Layer_1" xmlns="http://www.w3.org/2000/svg" xmlns:xlink="http://www.w3.org/1999/xlink" x="0px" y="0px"
	 viewBox="0 0 1781 81.3" enable-background="new 0 0 1781 81.3" xml:space="preserve">
<g>
	<rect x="-0.3" y="0.3" fill="#ACC152" width="673.2" height="27.7"/>
	<rect x="-0.3" y="27.2" fill="#6077A0" width="673.2" height="54.8"/>
	<path opacity="0.24" fill="#FFFFFF" d="M119,60H55.2V49.1H119V60z M243.6,49.1h-63.8V60h63.8V49.1z M368.2,49.1h-63.8V60h63.8V49.1
		z M492.8,49.1H429V60h63.8V49.1z M617.3,49.1h-63.8V60h63.8V49.1z"/>
</g>
<g>
	<rect x="617.7" y="0.3" fill="#ACC152" width="673.2" height="27.7"/>
	<rect x="617.7" y="27.2" fill="#6077A0" width="673.2" height="54.8"/>
	<path opacity="0.24" fill="#FFFFFF" d="M737,60h-63.8V49.1H737V60z M861.6,49.1h-63.8V60h63.8V49.1z M986.2,49.1h-63.8V60h63.8
		V49.1z M1110.8,49.1H1047V60h63.8V49.1z M1235.3,49.1h-63.8V60h63.8V49.1z"/>
</g>
<g>
	<rect x="1110.7" y="0.3" fill="#ACC152" width="673.2" height="27.7"/>
	<rect x="1110.7" y="27.2" fill="#6077A0" width="673.2" height="54.8"/>
	<path opacity="0.24" fill="#FFFFFF" d="M1230,60h-63.8V49.1h63.8V60z M1354.6,49.1h-63.8V60h63.8V49.1z M1479.2,49.1h-63.8V60h63.8
		V49.1z M1603.8,49.1H1540V60h63.8V49.1z M1728.3,49.1h-63.8V60h63.8V49.1z"/>
</g>
</svg>